# xmcd
#
# Track frame offsets:
#	150
#	12810
#	27699
#	45889
#	73224
#	86738
#	98138
#	115977
#	129583
#	140661
#	154631
#	167031
#	190679
#
# Disc length: 2691 seconds
#
# Revision: 0
# Processed by: cddbd v1.5.1PL0 Copyright (c) Steve Scherf et al.
# Submitted via: dBpowerAMP V4.0
#
DISCID=ac0a810d
DTITLE=Lil Joe Washington - Houston Guitar Blues
DYEAR=1900
DGENRE=Blues
TTITLE0=Hard Way 6
TTITLE1=Someone Loves Me
TTITLE2=I Feel Alright
TTITLE3=Unfinished Business
TTITLE4=Last Tear
TTITLE5=Bossa Nova Part 2
TTITLE6=New York
TTITLE7=Take My Hand
TTITLE8=Song For My Father
TTITLE9=Don't Do It
TTITLE10=5 Spot
TTITLE11=How Long
TTITLE12=Bye Bye
EXTD=
EXTT0=
EXTT1=
EXTT2=
EXTT3=
EXTT4=
EXTT5=
EXTT6=
EXTT7=
EXTT8=
EXTT9=
EXTT10=
EXTT11=
EXTT12=
PLAYORDER=
